<?xml version="1.0" standalone="no"?>
<!DOCTYPE svg PUBLIC "-//W3C//DTD SVG 20010904//EN"
 "http://www.w3.org/TR/2001/REC-SVG-20010904/DTD/svg10.dtd">
<svg version="1.0" xmlns="http://www.w3.org/2000/svg"
 width="500.000000pt" height="500.000000pt" viewBox="0 0 500.000000 500.000000"
 preserveAspectRatio="xMidYMid meet">

<g transform="translate(0.000000,500.000000) scale(0.100000,-0.100000)"
fill="#000000" stroke="none">
<path d="M2280 4011 c-167 -25 -315 -76 -500 -173 -150 -78 -265 -165 -387
-292 -201 -209 -334 -469 -389 -761 -21 -111 -29 -360 -15 -470 21 -170 77
-350 157 -505 218 -419 593 -704 1054 -801 87 -18 139 -22 305 -23 205 0 274
7 410 46 124 35 158 48 270 102 329 161 602 461 744 818 125 314 134 708 25
1035 -143 432 -486 780 -928 945 -166 61 -271 79 -491 83 -110 2 -225 0 -255
-4z m430 -126 c320 -54 580 -183 790 -395 201 -201 336 -459 391 -745 30 -152
11 -525 -26 -525 -7 0 -49 39 -95 88 -263 277 -517 535 -534 542 -13 4 -36 2
-58 -7 -21 -8 -44 -13 -52 -10 -7 3 -55 52 -106 109 -51 56 -121 132 -154 168
-34 36 -103 112 -153 170 -115 133 -126 143 -152 135 -11 -3 -46 -36 -78 -73
-32 -37 -74 -85 -94 -107 -34 -38 -92 -104 -282 -324 -131 -151 -159 -181
-171 -181 -6 0 -52 29 -101 65 -49 36 -97 65 -107 65 -25 0 -65 -36 -341 -309
-136 -135 -251 -247 -256 -249 -38 -13 -38 324 -1 478 5 19 14 58 21 85 54
229 202 480 386 656 195 186 476 320 773 368 87 14 307 12 400 -4z m-205 -818
c-29 -136 -32 -234 -9 -279 9 -16 35 -57 59 -90 25 -32 47 -74 50 -92 9 -43
-19 -134 -55 -184 -54 -75 -329 -332 -354 -332 -4 0 2 17 13 38 37 73 81 244
81 315 0 21 -8 15 -185 -131 -209 -174 -344 -269 -423 -296 -23 -8 -101 -24
-174 -35 -73 -11 -160 -29 -193 -40 -33 -11 -67 -21 -76 -21 -19 0 -48 63 -74
163 l-18 68 279 280 c245 245 280 277 293 264 13 -13 13 -24 2 -77 -17 -82
-72 -224 -122 -317 l-41 -74 37 7 c82 16 172 90 321 263 82 96 207 240 363
418 14 17 55 64 91 105 89 103 153 171 156 167 2 -2 -8 -56 -21 -120z m624
-737 c58 -60 97 -112 130 -177 27 -54 27 -57 -10 -49 -84 17 -201 102 -239
176 -24 48 -70 185 -70 212 0 19 11 12 68 -42 37 -36 91 -90 121 -120z"/>
</g>
</svg>
